<svg width="215" height="50" viewBox="0 0 215 50" fill="none" xmlns="http://www.w3.org/2000/svg">
<path d="M60.588 33.8735C60.449 33.7345 60.379 33.5655 60.379 33.3665V13.9465C60.379 13.7275 60.443 13.5485 60.573 13.4085C60.702 13.2705 60.876 13.1995 61.095 13.1995H63.839C64.057 13.1995 64.237 13.2695 64.376 13.4085C64.515 13.5485 64.585 13.7265 64.585 13.9465V21.6125H73.295V13.9465C73.295 13.7275 73.365 13.5485 73.504 13.4085C73.643 13.2705 73.812 13.1995 74.011 13.1995H76.785C77.004 13.1995 77.177 13.2695 77.307 13.4085C77.436 13.5485 77.501 13.7265 77.501 13.9465V33.3655C77.501 33.5645 77.436 33.7335 77.307 33.8725C77.177 34.0115 77.004 34.0815 76.785 34.0815H74.011C73.812 34.0815 73.643 34.0115 73.504 33.8725C73.365 33.7335 73.295 33.5645 73.295 33.3655V25.4005H64.585V33.3655C64.585 33.5645 64.515 33.7335 64.376 33.8725C64.237 34.0115 64.058 34.0815 63.839 34.0815H61.095C60.896 34.0815 60.727 34.0125 60.588 33.8735ZM83.856 32.3215C82.344 30.9495 81.549 28.9115 81.47 26.2065C81.45 25.6295 81.44 24.7845 81.44 23.6705C81.44 22.5365 81.45 21.6825 81.47 21.1055C81.549 18.4605 82.365 16.4315 83.916 15.0195C85.467 13.6075 87.565 12.9015 90.21 12.9015C92.835 12.9015 94.928 13.6075 96.489 15.0195C98.05 16.4315 98.87 18.4605 98.95 21.1055C98.99 22.2595 99.01 23.1145 99.01 23.6705C99.01 24.2085 98.99 25.0525 98.95 26.2065C98.87 28.9115 98.07 30.9495 96.548 32.3215C95.027 33.6935 92.914 34.3795 90.209 34.3795C87.485 34.3805 85.367 33.6935 83.856 32.3215ZM93.371 29.7265C94.147 28.9315 94.564 27.7085 94.624 26.0565C94.664 24.8635 94.684 24.0585 94.684 23.6405C94.684 23.1835 94.664 22.3785 94.624 21.2245C94.564 19.5945 94.136 18.3755 93.342 17.5705C92.546 16.7645 91.502 16.3625 90.21 16.3625C88.898 16.3625 87.843 16.7655 87.048 17.5705C86.252 18.3755 85.835 19.5945 85.795 21.2245C85.775 21.8015 85.765 22.6065 85.765 23.6405C85.765 24.6545 85.775 25.4605 85.795 26.0565C85.835 27.6875 86.247 28.9055 87.033 29.7115C87.818 30.5165 88.877 30.9195 90.21 30.9195C91.541 30.9195 92.596 30.5215 93.371 29.7265ZM105.572 33.5745C104.299 33.0375 103.334 32.3325 102.678 31.4565C102.022 30.5825 101.674 29.6275 101.634 28.5935C101.634 28.4345 101.694 28.2905 101.813 28.1615C101.932 28.0325 102.081 27.9675 102.261 27.9675H104.975C105.194 27.9675 105.373 28.0175 105.512 28.1165C105.651 28.2165 105.781 28.3555 105.9 28.5345C106.098 29.2115 106.551 29.7775 107.257 30.2355C107.963 30.6935 108.932 30.9215 110.165 30.9215C111.557 30.9215 112.606 30.6885 113.312 30.2215C114.018 29.7545 114.371 29.1135 114.371 28.2975C114.371 27.7605 114.192 27.3125 113.834 26.9555C113.476 26.5975 112.934 26.2845 112.208 26.0155C111.482 25.7465 110.403 25.4235 108.971 25.0465C106.624 24.4895 104.904 23.7535 103.811 22.8385C102.717 21.9245 102.17 20.6125 102.17 18.9005C102.17 17.7475 102.488 16.7185 103.124 15.8135C103.76 14.9085 104.67 14.1975 105.854 13.6805C107.037 13.1635 108.414 12.9055 109.986 12.9055C111.636 12.9055 113.063 13.1935 114.266 13.7705C115.469 14.3475 116.384 15.0675 117.01 15.9335C117.636 16.7985 117.969 17.6585 118.009 18.5135C118.009 18.6725 117.949 18.8165 117.83 18.9455C117.711 19.0755 117.562 19.1395 117.382 19.1395H114.548C114.11 19.1395 113.812 18.9605 113.653 18.6025C113.553 17.9655 113.166 17.4345 112.49 17.0065C111.814 16.5795 110.978 16.3655 109.984 16.3655C108.89 16.3655 108.03 16.5745 107.404 16.9915C106.778 17.4095 106.464 18.0165 106.464 18.8115C106.464 19.3485 106.623 19.7955 106.941 20.1535C107.259 20.5115 107.756 20.8255 108.433 21.0935C109.109 21.3615 110.093 21.6655 111.386 22.0025C113.156 22.4005 114.563 22.8485 115.607 23.3445C116.651 23.8425 117.421 24.4685 117.919 25.2235C118.416 25.9795 118.665 26.9445 118.665 28.1175C118.665 29.4105 118.312 30.5295 117.606 31.4735C116.9 32.4185 115.906 33.1385 114.623 33.6355C113.34 34.1335 111.853 34.3815 110.163 34.3815C108.375 34.3805 106.844 34.1115 105.572 33.5745ZM126.63 33.8735C126.491 33.7345 126.421 33.5655 126.421 33.3665V16.9295H120.903C120.704 16.9295 120.535 16.8605 120.396 16.7205C120.257 16.5825 120.187 16.4025 120.187 16.1835V13.9465C120.187 13.7275 120.251 13.5485 120.381 13.4085C120.51 13.2705 120.684 13.1995 120.903 13.1995H136.146C136.364 13.1995 136.544 13.2695 136.683 13.4085C136.822 13.5485 136.892 13.7265 136.892 13.9465V16.1835C136.892 16.4025 136.822 16.5815 136.683 16.7205C136.544 16.8605 136.365 16.9295 136.146 16.9295H130.657V33.3665C130.657 33.5655 130.592 33.7345 130.463 33.8735C130.333 34.0125 130.16 34.0825 129.941 34.0825H127.137C126.939 34.0815 126.77 34.0125 126.63 33.8735Z" fill="white"/>
<path d="M138.935 33.8735C138.805 33.7345 138.741 33.5555 138.741 33.3365V31.2185C138.741 30.9605 138.786 30.7515 138.875 30.5925C138.965 30.4335 139.069 30.2745 139.188 30.1155L149.539 16.7815H139.755C139.556 16.7815 139.387 16.7115 139.248 16.5725C139.109 16.4335 139.039 16.2545 139.039 16.0355V13.9475C139.039 13.7285 139.103 13.5495 139.233 13.4095C139.362 13.2715 139.536 13.2005 139.755 13.2005H154.043C154.262 13.2005 154.441 13.2705 154.58 13.4095C154.719 13.5495 154.789 13.7275 154.789 13.9475V16.0355C154.789 16.4335 154.659 16.7815 154.401 17.0795L144.289 30.5025H154.401C154.62 30.5025 154.794 30.5675 154.923 30.6965C155.052 30.8265 155.117 31.0005 155.117 31.2185V33.3665C155.117 33.5655 155.052 33.7345 154.923 33.8735C154.794 34.0125 154.62 34.0825 154.401 34.0825H139.456C139.238 34.0815 139.064 34.0125 138.935 33.8735Z" fill="white"/>
<path d="M158.817 33.8735C158.678 33.7345 158.608 33.5655 158.608 33.3665V13.9465C158.608 13.7275 158.672 13.5485 158.802 13.4085C158.931 13.2705 159.105 13.1995 159.324 13.1995H172.479C172.698 13.1995 172.877 13.2695 173.016 13.4085C173.155 13.5485 173.225 13.7265 173.225 13.9465V15.9445C173.225 16.1635 173.155 16.3375 173.016 16.4665C172.876 16.5965 172.698 16.6605 172.479 16.6605H162.695V21.8805H171.823C172.041 21.8805 172.221 21.9505 172.36 22.0895C172.499 22.2285 172.569 22.4075 172.569 22.6265V24.5055C172.569 24.7245 172.499 24.8985 172.36 25.0275C172.221 25.1575 172.042 25.2215 171.823 25.2215H162.695V30.6205H172.718C172.936 30.6205 173.116 30.6855 173.255 30.8145C173.394 30.9445 173.464 31.1185 173.464 31.3365V33.3655C173.464 33.5845 173.394 33.7575 173.255 33.8875C173.116 34.0175 172.937 34.0815 172.718 34.0815H159.325C159.125 34.0815 158.956 34.0125 158.817 33.8735Z" fill="white"/>
<path d="M193.806 33.1275L189.481 25.5205C190.734 25.0835 191.708 24.3725 192.404 23.3885C193.1 22.4035 193.448 21.1855 193.448 19.7335C193.448 17.6455 192.757 16.0355 191.375 14.9015C189.993 13.7675 188.079 13.2005 185.633 13.2005H177.907C177.688 13.2005 177.513 13.2705 177.385 13.4095C177.255 13.5495 177.191 13.7275 177.191 13.9475V33.3665C177.191 33.5655 177.261 33.7345 177.4 33.8735C177.539 34.0125 177.708 34.0825 177.907 34.0825H180.651C180.869 34.0825 181.049 34.0125 181.188 33.8735C181.327 33.7345 181.396 33.5655 181.396 33.3665V26.2075H185.483L189.301 33.2775C189.44 33.5155 189.599 33.7095 189.779 33.8595C189.958 34.0085 190.206 34.0835 190.525 34.0835H193.269C193.428 34.0835 193.572 34.0235 193.702 33.9045C193.832 33.7855 193.896 33.6355 193.896 33.4575C193.896 33.3565 193.866 33.2465 193.806 33.1275ZM188.228 22.0155C187.631 22.5425 186.737 22.8065 185.543 22.8065H181.397V16.5425H185.543C186.736 16.5425 187.631 16.8155 188.228 17.3625C188.825 17.9095 189.123 18.6895 189.123 19.7035C189.123 20.7175 188.825 21.4885 188.228 22.0155Z" fill="white"/>
<path d="M213.925 19.8635C213.613 20.4315 213.247 20.9585 212.81 21.3955C211.894 22.2555 210.872 22.7515 209.754 22.9245C209.76 23.2125 209.764 23.4625 209.764 23.6415C209.764 24.0595 209.744 24.8645 209.704 26.0575C209.644 27.7085 209.227 28.9315 208.451 29.7275C207.676 30.5225 206.621 30.9205 205.289 30.9205C203.956 30.9205 202.897 30.5175 202.112 29.7125C201.326 28.9065 200.913 27.6885 200.874 26.0575C200.854 25.4615 200.844 24.6555 200.844 23.6415C200.844 22.6075 200.854 21.8025 200.874 21.2255C200.914 19.5955 201.331 18.3765 202.127 17.5715C202.675 17.0165 203.355 16.6665 204.149 16.4935C204.461 15.6335 204.956 14.8235 205.597 14.1825C206.044 13.7355 206.595 13.3595 207.196 13.0425C206.595 12.9505 205.96 12.9025 205.289 12.9025C202.643 12.9025 200.546 13.6085 198.995 15.0195C197.444 16.4315 196.628 18.4605 196.549 21.1055C196.529 21.6825 196.519 22.5365 196.519 23.6705C196.519 24.7855 196.529 25.6295 196.549 26.2065C196.628 28.9115 197.424 30.9495 198.936 32.3215C200.447 33.6935 202.564 34.3795 205.29 34.3795C207.994 34.3795 210.107 33.6935 211.628 32.3215C213.15 30.9495 213.95 28.9115 214.03 26.2065C214.07 25.0525 214.09 24.2085 214.09 23.6705C214.09 23.1145 214.07 22.2595 214.03 21.1055C214.018 20.6735 213.978 20.2635 213.925 19.8635Z" fill="white"/>
<path d="M10.961 33.8315C7.298 29.4005 5.264 22.2075 4.19 16.8115L15.986 23.6455C18.156 24.9025 19.492 27.2205 19.491 29.7285L19.486 48.1975L3.505 38.9395C1.335 37.6825 -0.000999439 35.3645 5.60984e-07 32.8565L0.00400056 16.1905C3.007 27.9225 10.961 33.8315 10.961 33.8315Z" fill="url(#paint0_linear)"/>
<path d="M39.914 9.5205V9.5195L25.179 1.0245C22.81 -0.3415 19.892 -0.3415 17.523 1.0245L13.748 3.2005L30.477 12.8465L26.63 15.0675L9.898 5.4195L1.466 10.2805L19.807 20.8555C22.312 22.2995 23.857 24.9695 23.862 27.8605L23.89 49.0365L32.34 44.1625L32.315 24.9585L36.129 22.7565L36.154 41.9625L39.68 39.9285C42.174 38.4905 43.713 35.8325 43.718 32.9535L43.748 16.1745V16.1485C43.744 13.3145 42.202 10.8435 39.914 9.5205Z" fill="url(#paint1_linear)"/>
<path d="M213.915 13.0785C213.798 12.9615 213.623 12.9025 213.447 12.9025C213.271 12.9025 208.531 13.3705 206.659 15.2435C205.743 16.1595 205.266 17.4565 205.278 18.5215C207.252 16.6845 211.5 15.3555 211.5 15.3555C208.257 16.8945 206.967 19.2995 206.463 20.7475C206.465 20.7495 206.467 20.7515 206.47 20.7535C206.902 21.1355 208.063 21.5045 208.883 21.5045C209.819 21.5045 210.814 21.2115 211.75 20.3345C213.74 18.3445 214.091 13.7225 214.091 13.5465C214.091 13.3705 214.032 13.1955 213.915 13.0785Z" fill="url(#paint2_linear)"/>
<defs>
<linearGradient id="paint0_linear" x1="15.0172" y1="23.0631" x2="5.2507" y2="39.9792" gradientUnits="userSpaceOnUse">
<stop stop-color="#A7D052"/>
<stop offset="0.9994" stop-color="#00AD6A"/>
</linearGradient>
<linearGradient id="paint1_linear" x1="38.8851" y1="40.3864" x2="16.4943" y2="1.6044" gradientUnits="userSpaceOnUse">
<stop stop-color="#9E2064"/>
<stop offset="0.1033" stop-color="#A32062"/>
<stop offset="0.2384" stop-color="#B0205F"/>
<stop offset="0.3904" stop-color="#C61E58"/>
<stop offset="0.5" stop-color="#DD1C53"/>
<stop offset="0.5096" stop-color="#D81D53"/>
<stop offset="0.6267" stop-color="#AF2159"/>
<stop offset="0.7378" stop-color="#91225E"/>
<stop offset="0.8402" stop-color="#7E2261"/>
<stop offset="0.9308" stop-color="#722262"/>
<stop offset="1" stop-color="#6E2263"/>
</linearGradient>
<linearGradient id="paint2_linear" x1="205.278" y1="17.2039" x2="214.09" y2="17.2039" gradientUnits="userSpaceOnUse">
<stop stop-color="#A7D052"/>
<stop offset="0.9994" stop-color="#00AD6A"/>
</linearGradient>
</defs>
</svg>
